<svg xmlns="http://www.w3.org/2000/svg" width="1200" height="500" viewBox="0 0 1200 500" role="img" aria-label="Branchcraft: a draft tree, shared KV pages, CUDA verification and cache commit">
<defs><linearGradient id="bg" x2="1" y2="1"><stop stop-color="#0d1728"/><stop offset="1" stop-color="#132c3b"/></linearGradient><linearGradient id="accent"><stop stop-color="#54e3bb"/><stop offset="1" stop-color="#44a7e3"/></linearGradient><filter id="glow"><feGaussianBlur stdDeviation="20"/></filter></defs>
<rect width="1200" height="500" rx="26" fill="url(#bg)"/><circle cx="965" cy="80" r="150" fill="#2a917c" opacity=".1" filter="url(#glow)"/>
<g font-family="Inter,Arial,sans-serif"><text x="55" y="80" fill="#65e6c2" font-size="17" letter-spacing="4" font-weight="700">CUDA INFERENCE ENGINEERING</text><text x="55" y="145" fill="#f1f7ff" font-size="65" font-weight="800">Branchcraft</text><text x="57" y="183" fill="#a5b8ca" font-size="22">Speculative tree verification meets the KV cache</text></g>
<g font-family="Inter,Arial,sans-serif" font-size="17" font-weight="700">
<rect x="55" y="250" width="276" height="170" rx="17" fill="#182d41" stroke="#38566d"/><text x="75" y="282" fill="#a9c1d5">DRAFT TOKEN TREE</text><g fill="#57dfb9"><circle cx="180" cy="316" r="8"/><circle cx="130" cy="354" r="8"/><circle cx="230" cy="354" r="8"/><circle cx="100" cy="392" r="7"/><circle cx="155" cy="392" r="7"/><circle cx="205" cy="392" r="7"/><circle cx="260" cy="392" r="7"/></g><path d="M180 324l-50 22m50-22 50 22m-100 16-30 23m30-23 25 23m75-23-25 23m25-23 30 23" stroke="#69a3a1" stroke-width="2"/>
<rect x="387" y="250" width="346" height="170" rx="17" fill="#182d41" stroke="#38566d"/><text x="407" y="282" fill="#a9c1d5">SHUFFLED PHYSICAL KV PAGES</text><g fill="#204d60" stroke="#5cdbc4"><rect x="407" y="313" width="59" height="54" rx="7"/><rect x="479" y="313" width="59" height="54" rx="7"/><rect x="551" y="313" width="59" height="54" rx="7"/><rect x="623" y="313" width="59" height="54" rx="7"/></g><g fill="#ccf8e8" font-size="18"><text x="422" y="347">07</text><text x="494" y="347">02</text><text x="566" y="347">11</text><text x="638" y="347">04</text></g><text x="407" y="399" fill="#7f9eb5" font-size="13">Logical order is reconstructed by the page table</text>
<rect x="790" y="250" width="355" height="170" rx="17" fill="#183744" stroke="#56d7b7"/><text x="812" y="282" fill="#a9c1d5">CUDA TREE VERIFIER</text><text x="812" y="330" fill="#e8f8f8" font-size="22">ancestor-only attention</text><text x="812" y="360" fill="#e8f8f8" font-size="22">accept · commit · rollback</text><text x="812" y="399" fill="#82baa9" font-size="13">FP16 KV → FP32 output</text>
</g><path d="M335 335h43m-13-10 13 10-13 10M737 335h43m-13-10 13 10-13 10" stroke="url(#accent)" stroke-width="4" fill="none" stroke-linecap="round"/><text x="56" y="467" fill="#68839a" font-family="Inter,Arial,sans-serif" font-size="14">SOURCE · TESTS · RAW GPU DATA · INTERACTIVE WRITE-UP</text></svg>
